<svg xmlns="http://www.w3.org/2000/svg" viewBox="0 0 800 480">
  <!-- Background -->
  <rect width="800" height="480" fill="#040a14"/>

  <!-- Grid -->
  <g stroke="#0a1e30" stroke-width="0.5">
    <line x1="0" y1="96" x2="800" y2="96"/>
    <line x1="0" y1="192" x2="800" y2="192"/>
    <line x1="0" y1="288" x2="800" y2="288"/>
    <line x1="0" y1="384" x2="800" y2="384"/>
    <line x1="160" y1="0" x2="160" y2="480"/>
    <line x1="320" y1="0" x2="320" y2="480"/>
    <line x1="480" y1="0" x2="480" y2="480"/>
    <line x1="640" y1="0" x2="640" y2="480"/>
  </g>

  <!-- Range rings -->
  <circle cx="310" cy="258" r="68"  fill="none" stroke="#143050" stroke-width="1"/>
  <circle cx="310" cy="258" r="136" fill="none" stroke="#143050" stroke-width="1"/>
  <circle cx="310" cy="258" r="204" fill="none" stroke="#143050" stroke-width="1"/>
  <circle cx="310" cy="258" r="272" fill="none" stroke="#143050" stroke-width="1"/>

  <!-- Cross-hairs -->
  <line x1="310" y1="0" x2="310" y2="480" stroke="#143050" stroke-width="0.8"/>
  <line x1="0"   y1="258" x2="800" y2="258" stroke="#143050" stroke-width="0.8"/>

  <!-- County/state boundaries -->
  <g stroke="#1e3a55" stroke-width="0.9" fill="none">
    <polyline points="90,140 175,132 265,128 365,134 465,142 545,155 585,192"/>
    <polyline points="90,295 182,286 305,277 435,282 562,295 605,322"/>
    <line x1="175" y1="132" x2="180" y2="286"/>
    <line x1="365" y1="134" x2="370" y2="280"/>
    <line x1="545" y1="155" x2="550" y2="298"/>
  </g>

  <!-- Precipitation — outer stratiform -->
  <ellipse cx="382" cy="234" rx="148" ry="100" fill="rgba(29,78,216,0.28)"  transform="rotate(-12 382 234)"/>
  <!-- Embedded convective line -->
  <ellipse cx="372" cy="226" rx="106" ry="68"  fill="rgba(37,99,235,0.40)"  transform="rotate(-14 372 226)"/>
  <ellipse cx="360" cy="218" rx="65"  ry="41"  fill="rgba(6,182,212,0.52)"  transform="rotate(-18 360 218)"/>
  <ellipse cx="348" cy="212" rx="36"  ry="24"  fill="rgba(16,185,129,0.64)"/>
  <ellipse cx="340" cy="207" rx="18"  ry="12"  fill="rgba(234,179,8,0.76)"/>
  <ellipse cx="334" cy="204" rx="9"   ry="7"   fill="rgba(249,115,22,0.87)"/>
  <ellipse cx="330" cy="202" rx="4"   ry="4"   fill="rgba(239,68,68,0.94)"/>

  <!-- Second weaker cell SE -->
  <ellipse cx="468" cy="308" rx="46" ry="32" fill="rgba(37,99,235,0.30)" transform="rotate(8 468 308)"/>
  <ellipse cx="462" cy="303" rx="24" ry="16" fill="rgba(6,182,212,0.44)"/>
  <ellipse cx="458" cy="300" rx="11" ry="8"  fill="rgba(16,185,129,0.54)"/>

  <!-- Light precip WSW -->
  <ellipse cx="228" cy="278" rx="58" ry="36" fill="rgba(29,78,216,0.20)" transform="rotate(-22 228 278)"/>

  <!-- Radar sweep -->
  <line x1="310" y1="258" x2="492" y2="96" stroke="rgba(74,222,128,0.30)" stroke-width="2.5"/>

  <!-- Assessment marker -->
  <circle cx="376" cy="236" r="6" fill="none" stroke="#ef4444" stroke-width="2"/>
  <line x1="376" y1="230" x2="376" y2="204" stroke="#ef4444" stroke-width="1.5"/>
  <rect x="316" y="191" width="122" height="12" fill="rgba(0,0,0,0.65)" rx="2"/>
  <text x="377" y="201" fill="#ef4444" font-family="monospace" font-size="9" text-anchor="middle">CHAMPAIGN CO, IL</text>

  <!-- Header bar -->
  <rect x="0" y="0" width="800" height="46" fill="rgba(4,10,20,0.88)"/>
  <text x="12" y="17" fill="#4ade80" font-family="monospace" font-size="11" font-weight="bold">NEXRAD · KILX · BASE REFLECTIVITY · 0.5° TILT</text>
  <text x="12" y="34" fill="#4ade80" font-family="monospace" font-size="9">CHAMPAIGN COUNTY, IL · 2026-03-07 10:14:22 UTC · VCP 212</text>

  <!-- dBZ legend -->
  <text x="712" y="74" fill="#64748b" font-family="monospace" font-size="8" text-anchor="middle">dBZ</text>
  <rect x="700" y="78" width="22" height="11" fill="#1e3a8a"/><text x="726" y="88"  fill="#64748b" font-family="monospace" font-size="7">15</text>
  <rect x="700" y="89" width="22" height="11" fill="#1d4ed8"/><text x="726" y="99"  fill="#64748b" font-family="monospace" font-size="7">20</text>
  <rect x="700" y="100" width="22" height="11" fill="#0284c7"/><text x="726" y="110" fill="#64748b" font-family="monospace" font-size="7">25</text>
  <rect x="700" y="111" width="22" height="11" fill="#06b6d4"/><text x="726" y="121" fill="#64748b" font-family="monospace" font-size="7">30</text>
  <rect x="700" y="122" width="22" height="11" fill="#10b981"/><text x="726" y="132" fill="#64748b" font-family="monospace" font-size="7">35</text>
  <rect x="700" y="133" width="22" height="11" fill="#84cc16"/><text x="726" y="143" fill="#64748b" font-family="monospace" font-size="7">40</text>
  <rect x="700" y="144" width="22" height="11" fill="#eab308"/><text x="726" y="154" fill="#64748b" font-family="monospace" font-size="7">45</text>
  <rect x="700" y="155" width="22" height="11" fill="#f97316"/><text x="726" y="165" fill="#64748b" font-family="monospace" font-size="7">50</text>
  <rect x="700" y="166" width="22" height="11" fill="#ef4444"/><text x="726" y="176" fill="#64748b" font-family="monospace" font-size="7">55+</text>

  <!-- Scale bar -->
  <line x1="42" y1="456" x2="122" y2="456" stroke="#4ade80" stroke-width="1.5"/>
  <line x1="42" y1="452" x2="42"  y2="460" stroke="#4ade80" stroke-width="1.5"/>
  <line x1="122" y1="452" x2="122" y2="460" stroke="#4ade80" stroke-width="1.5"/>
  <text x="82" y="471" fill="#4ade80" font-family="monospace" font-size="8" text-anchor="middle">50 km</text>

  <!-- Corner coords -->
  <text x="12"  y="472" fill="#334155" font-family="monospace" font-size="7">40.28°N 89.52°W</text>
  <text x="788" y="472" fill="#334155" font-family="monospace" font-size="7" text-anchor="end">39.78°N 87.76°W</text>
</svg>
